<?xml version="1.0" encoding="UTF-8" standalone="no"?>
<svg
   xmlns:dc="http://purl.org/dc/elements/1.1/"
   xmlns:cc="http://creativecommons.org/ns#"
   xmlns:rdf="http://www.w3.org/1999/02/22-rdf-syntax-ns#"
   xmlns:svg="http://www.w3.org/2000/svg"
   xmlns="http://www.w3.org/2000/svg"
   xmlns:sodipodi="http://sodipodi.sourceforge.net/DTD/sodipodi-0.dtd"
   xmlns:inkscape="http://www.inkscape.org/namespaces/inkscape"
   version="1.1"
   id="venn-svg"
   sodipodi:docname="venn2.svg"
   inkscape:version="0.92.3 (2405546, 2018-03-11)"
   width="265.83051"
   height="111.98324"
   viewBox="0 0 265.8305 111.98324">
  <metadata
     id="metadata834">
    <rdf:RDF>
      <cc:Work
         rdf:about="">
        <dc:format>image/svg+xml</dc:format>
        <dc:type
           rdf:resource="http://purl.org/dc/dcmitype/StillImage" />
        <dc:title></dc:title>
      </cc:Work>
    </rdf:RDF>
  </metadata>
  <defs
     id="defs832" />
  <sodipodi:namedview
     pagecolor="#ffffff"
     bordercolor="#666666"
     borderopacity="1"
     objecttolerance="10"
     gridtolerance="10"
     guidetolerance="10"
     inkscape:pageopacity="0"
     inkscape:pageshadow="2"
     inkscape:window-width="1920"
     inkscape:window-height="1017"
     id="namedview830"
     showgrid="false"
     inkscape:zoom="3.337544"
     inkscape:cx="112.83817"
     inkscape:cy="70.492658"
     inkscape:window-x="-8"
     inkscape:window-y="-8"
     inkscape:window-maximized="1"
     inkscape:current-layer="venn-svg"
     fit-margin-top="0"
     fit-margin-left="0"
     fit-margin-right="0"
     fit-margin-bottom="0"
     scale-x="1" />
  <g
     id="g853"
     transform="matrix(4,0,0,4,-3.118572,-4.0755952)">
    <path
       id="path815"
       d="M 34.018757,5.164244 A 17.235713,13.106324 0 0 0 27.814434,15.218407 17.235713,13.106324 0 0 0 33.998632,25.273063 17.235713,13.106323 0 0 0 40.202464,15.218407 17.235713,13.106323 0 0 0 34.018757,5.164244 Z"
       style="fill:#87de87;fill-opacity:0.87868287;stroke:none;stroke-width:0.50270832;stroke-miterlimit:4;stroke-dasharray:none;stroke-opacity:1"
       inkscape:connector-curvature="0" />
    <path
       id="path4558"
       d="M 22.385385,1.4226011 A 18.142856,13.796131 0 0 0 4.2428233,15.218653 18.142856,13.796131 0 0 0 22.385385,29.014708 18.142856,13.796131 0 0 0 33.997596,25.801987 18.142856,13.796131 0 0 1 27.487916,15.218653 18.142856,13.796131 0 0 1 34.018784,4.6348053 18.142856,13.796131 0 0 0 22.385385,1.4226011 Z"
       style="fill:#ffdd55;fill-opacity:0.87868287;stroke:none;stroke-width:0.52916664;stroke-miterlimit:4;stroke-dasharray:none;stroke-opacity:1"
       inkscape:connector-curvature="0" />
    <path
       id="path815-4"
       d="M 34.018784,4.6348053 A 18.142856,13.796131 0 0 1 40.528464,15.218653 18.142856,13.796131 0 0 1 33.997597,25.801987 18.142856,13.796131 0 0 0 45.630995,29.014708 18.142856,13.796131 0 0 0 63.774074,15.218653 18.142856,13.796131 0 0 0 45.630995,1.4226011 18.142856,13.796131 0 0 0 34.018784,4.6348053 Z"
       style="fill:#80b3ff;fill-opacity:0.87868287;stroke:none;stroke-width:0.52916664;stroke-miterlimit:4;stroke-dasharray:none;stroke-opacity:1"
       inkscape:connector-curvature="0" />
    <text
       id="text4562"
       y="16.756538"
       x="19.130795"
       style="font-style:normal;font-weight:normal;font-size:10.58333302px;line-height:1.25;font-family:sans-serif;letter-spacing:0px;word-spacing:0px;fill:#000000;fill-opacity:1;stroke:none;stroke-width:0.26458332"
       xml:space="preserve"><tspan
         style="font-size:4.23333311px;text-align:center;text-anchor:middle;stroke-width:0.26458332"
         y="16.756538"
         x="19.130795"
         id="tspan4560">0</tspan></text>
    <text
       id="text4562-4"
       y="16.756538"
       x="34.008442"
       style="font-style:normal;font-weight:normal;font-size:10.58333302px;line-height:1.25;font-family:sans-serif;letter-spacing:0px;word-spacing:0px;fill:#000000;fill-opacity:1;stroke:none;stroke-width:0.26458332"
       xml:space="preserve"><tspan
         style="font-size:4.23333311px;text-align:center;text-anchor:middle;stroke-width:0.26458332"
         y="16.756538"
         x="34.008442"
         id="tspan4560-3">0</tspan></text>
    <text
       id="text4562-2"
       y="16.756538"
       x="48.885826"
       style="font-style:normal;font-weight:normal;font-size:10.58333302px;line-height:1.25;font-family:sans-serif;letter-spacing:0px;word-spacing:0px;fill:#000000;fill-opacity:1;stroke:none;stroke-width:0.26458332"
       xml:space="preserve"><tspan
         style="font-size:4.23333311px;text-align:center;text-anchor:middle;stroke-width:0.26458332"
         y="16.756538"
         x="48.885826"
         id="tspan4560-4">0</tspan></text>
    <text
       id="text4562-46"
       y="3.0707977"
       x="4.6216135"
       style="font-style:normal;font-weight:normal;font-size:10.58333302px;line-height:1.25;font-family:sans-serif;letter-spacing:0px;word-spacing:0px;fill:#000000;fill-opacity:1;stroke:none;stroke-width:0.26458332"
       xml:space="preserve"><tspan
         style="font-size:2.82222223px;text-align:center;text-anchor:middle;stroke-width:0.26458332"
         y="3.0707977"
         x="4.6216135"
         id="tspan4560-1">Name</tspan></text>
    <text
       id="text4562-46-3"
       y="3.0707977"
       x="63.257492"
       style="font-style:normal;font-weight:normal;font-size:10.58333302px;line-height:1.25;font-family:sans-serif;letter-spacing:0px;word-spacing:0px;fill:#000000;fill-opacity:1;stroke:none;stroke-width:0.26458332"
       xml:space="preserve"><tspan
         style="font-size:2.82222223px;text-align:center;text-anchor:middle;stroke-width:0.26458332"
         y="3.0707977"
         x="63.257492"
         id="tspan4560-1-2">Name</tspan></text>
  </g>
</svg>
