<?xml version="1.0" encoding="UTF-8" standalone="no"?>
<svg
   xmlns:dc="http://purl.org/dc/elements/1.1/"
   xmlns:cc="http://creativecommons.org/ns#"
   xmlns:rdf="http://www.w3.org/1999/02/22-rdf-syntax-ns#"
   xmlns:svg="http://www.w3.org/2000/svg"
   xmlns="http://www.w3.org/2000/svg"
   xmlns:sodipodi="http://sodipodi.sourceforge.net/DTD/sodipodi-0.dtd"
   xmlns:inkscape="http://www.inkscape.org/namespaces/inkscape"
   version="1.1"
   id="venn-svg"
   sodipodi:docname="venn3.svg"
   inkscape:version="0.92.3 (2405546, 2018-03-11)"
   width="265.83026"
   height="244.14819"
   viewBox="0 0 265.83027 244.1482">
  <metadata
     id="metadata834">
    <rdf:RDF>
      <cc:Work
         rdf:about="">
        <dc:format>image/svg+xml</dc:format>
        <dc:type
           rdf:resource="http://purl.org/dc/dcmitype/StillImage" />
        <dc:title></dc:title>
      </cc:Work>
    </rdf:RDF>
  </metadata>
  <defs
     id="defs832" />
  <sodipodi:namedview
     pagecolor="#ffffff"
     bordercolor="#666666"
     borderopacity="1"
     objecttolerance="10"
     gridtolerance="10"
     guidetolerance="10"
     inkscape:pageopacity="0"
     inkscape:pageshadow="2"
     inkscape:window-width="1920"
     inkscape:window-height="1017"
     id="namedview830"
     showgrid="false"
     inkscape:zoom="1.668772"
     inkscape:cx="25.690221"
     inkscape:cy="88.239128"
     inkscape:window-x="-8"
     inkscape:window-y="-8"
     inkscape:window-maximized="1"
     inkscape:current-layer="g2802"
     fit-margin-top="0"
     fit-margin-left="0"
     fit-margin-right="0"
     fit-margin-bottom="0"
     scale-x="1"
     inkscape:snap-object-midpoints="true"
     inkscape:snap-smooth-nodes="true"
     inkscape:snap-intersection-paths="true"
     inkscape:object-paths="true" />
  <g
     id="g2811">
    <path
       inkscape:connector-curvature="0"
       id="path2559"
       d="m 134.58238,26.175224 a 73.506355,73.506355 0 0 0 -34.621094,62.33008 73.506355,73.506355 0 0 0 0.0879,2.4707 73.506355,73.506355 0 0 1 34.58008,-8.70508 73.506355,73.506355 0 0 1 34.54492,8.66211 73.506355,73.506355 0 0 0 0.12109,-2.42773 73.506355,73.506355 0 0 0 -34.71289,-62.33008 z"
       style="opacity:1;fill:#87de87;fill-opacity:0.87843137;stroke:#ffffff;stroke-width:1.35000002;stroke-miterlimit:4;stroke-dasharray:none;stroke-opacity:1" />
    <path
       inkscape:connector-curvature="0"
       id="path2557"
       d="m 169.17418,90.933034 a 73.506355,73.506355 0 0 1 -34.5,59.902336 73.506355,73.506355 0 0 0 38.79297,11.17579 73.506355,73.506355 0 0 0 34.58008,-8.70704 73.506355,73.506355 0 0 0 -38.87305,-62.371086 z"
       style="opacity:1;fill:#aa87de;fill-opacity:0.87843137;stroke:#ffffff;stroke-width:1.35000002;stroke-miterlimit:4;stroke-dasharray:none;stroke-opacity:1" />
    <path
       inkscape:connector-curvature="0"
       id="path2553"
       d="m 134.67418,150.83537 a 73.506355,73.506355 0 0 1 -34.625,-59.859366 73.506355,73.506355 0 0 0 -38.806644,62.371086 73.506355,73.506355 0 0 0 0,0.002 73.506355,73.506355 0 0 0 0.002,0 73.506355,73.506355 0 0 0 34.54493,8.66211 73.506355,73.506355 0 0 0 38.884764,-11.17579 z"
       style="opacity:1;fill:#ff9955;fill-opacity:0.87843137;stroke:#ffffff;stroke-width:1.35000002;stroke-miterlimit:4;stroke-dasharray:none;stroke-opacity:1" />
    <path
       inkscape:connector-curvature="0"
       id="path2448"
       d="M 95.789426,14.999439 A 73.506355,73.506355 0 0 0 22.283567,88.505299 73.506355,73.506355 0 0 0 61.244504,153.34905 73.506355,73.506355 0 0 1 100.0492,90.977955 73.506355,73.506355 0 0 1 99.961296,88.505299 73.506355,73.506355 0 0 1 134.58435,26.175221 73.506355,73.506355 0 0 0 95.789426,14.999439 Z"
       style="opacity:1;fill:#ffdd55;fill-opacity:0.87843137;stroke:#ffffff;stroke-width:1.35000002;stroke-miterlimit:4;stroke-dasharray:none;stroke-opacity:1" />
    <path
       inkscape:connector-curvature="0"
       id="path2446"
       d="m 134.58435,26.175221 a 73.506355,73.506355 0 0 1 34.71094,62.330078 73.506355,73.506355 0 0 1 -0.12109,2.427734 73.506355,73.506355 0 0 1 38.87304,62.373047 73.506355,73.506355 0 0 0 38.92774,-64.800781 73.506355,73.506355 0 0 0 -73.50782,-73.50586 73.506355,73.506355 0 0 0 -38.88281,11.175782 z"
       style="opacity:1;fill:#80b3ff;fill-opacity:0.87843137;stroke:#ffffff;stroke-width:1.35000002;stroke-miterlimit:4;stroke-dasharray:none;stroke-opacity:1" />
    <path
       inkscape:connector-curvature="0"
       id="path2444"
       d="m 208.04724,153.30608 a 73.506355,73.506355 0 0 1 -34.58008,8.70508 73.506355,73.506355 0 0 1 -38.79296,-11.17578 73.506355,73.506355 0 0 1 -38.884774,11.17578 73.506355,73.506355 0 0 1 -34.544922,-8.66211 73.506355,73.506355 0 0 0 -0.121094,2.42773 73.506355,73.506355 0 0 0 73.50586,73.50586 73.506355,73.506355 0 0 0 73.50586,-73.50586 73.506355,73.506355 0 0 0 -0.0879,-2.4707 z"
       style="opacity:1;fill:#ff5555;fill-opacity:0.87843137;stroke:#ffffff;stroke-width:1.35000002;stroke-miterlimit:4;stroke-dasharray:none;stroke-opacity:1" />
    <path
       inkscape:connector-curvature="0"
       id="path2352"
       d="m 134.6742,150.83538 a 73.506355,73.506355 0 0 0 34.5,-59.902347 73.506355,73.506355 0 0 0 -34.54493,-8.662109 73.506355,73.506355 0 0 0 -34.58007,8.707031 73.506355,73.506355 0 0 0 34.625,59.857425 z"
       style="opacity:1;fill:#87decd;fill-opacity:0.87843137;stroke:#ffffff;stroke-width:1.35000002;stroke-miterlimit:4;stroke-dasharray:none;stroke-opacity:1" />
  </g>
  <g
     id="g2802">
    <text
       x="72.733826"
       y="71.964066"
       style="font-size:48px;line-height:1.25;font-family:sans-serif;letter-spacing:0px;word-spacing:0px;fill:#000000;stroke-width:1.05832005"
       id="text2622">
      <tspan
         style="font-size:16.93320084px;text-align:center;text-anchor:middle;stroke-width:1.05832005"
         x="72.733826"
         y="71.964066"
         font-size="4.2333px"
         text-align="center"
         id="tspan2620">0</tspan>
    </text>
    <text
       x="134.6283"
       y="71.964066"
       style="font-size:48px;line-height:1.25;font-family:sans-serif;letter-spacing:0px;word-spacing:0px;fill:#000000;stroke-width:1.05832005"
       id="text2626">
      <tspan
         style="font-size:16.93320084px;text-align:center;text-anchor:middle;stroke-width:1.05832005"
         x="134.6283"
         y="71.964066"
         font-size="4.2333px"
         text-align="center"
         id="tspan2624">0</tspan>
    </text>
    <text
       x="196.47906"
       y="71.964066"
       style="font-size:48px;line-height:1.25;font-family:sans-serif;letter-spacing:0px;word-spacing:0px;fill:#000000;stroke-width:1.05832005"
       id="text2630">
      <tspan
         style="font-size:16.93320084px;text-align:center;text-anchor:middle;stroke-width:1.05832005"
         x="196.47906"
         y="71.964066"
         font-size="4.2333px"
         text-align="center"
         id="tspan2628">0</tspan>
    </text>
    <text
       x="15.367762"
       y="8.207531"
       style="font-size:48px;line-height:1.25;font-family:sans-serif;letter-spacing:0px;word-spacing:0px;fill:#000000;stroke-width:1.05832005"
       id="text2634">
      <tspan
         style="font-size:11.28880024px;text-align:center;text-anchor:middle;stroke-width:1.05832005"
         x="15.367762"
         y="8.207531"
         font-size="2.8222px"
         text-align="center"
         id="tspan2632">Name</tspan>
    </text>
    <text
       x="249.91129"
       y="8.207531"
       style="font-size:48px;line-height:1.25;font-family:sans-serif;letter-spacing:0px;word-spacing:0px;fill:#000000;stroke-width:1.05832005"
       id="text2638">
      <tspan
         style="font-size:11.28880024px;text-align:center;text-anchor:middle;stroke-width:1.05832005"
         x="249.91129"
         y="8.207531"
         font-size="2.8222px"
         text-align="center"
         id="tspan2636">Name</tspan>
    </text>
    <text
       x="134.35367"
       y="243.97731"
       style="font-size:48px;line-height:1.25;font-family:sans-serif;letter-spacing:0px;word-spacing:0px;fill:#000000;stroke-width:1.05832005"
       id="text2634-2">
      <tspan
         style="font-size:11.28880024px;text-align:center;text-anchor:middle;stroke-width:1.05832005"
         x="134.35367"
         y="243.97731"
         font-size="2.8222px"
         text-align="center"
         id="tspan2632-8">Name</tspan>
    </text>
    <text
       x="134.62927"
       y="200.15001"
       style="font-size:48px;line-height:1.25;font-family:sans-serif;letter-spacing:0px;word-spacing:0px;fill:#000000;stroke-width:1.05832005"
       id="text2630-7">
      <tspan
         style="font-size:16.93320084px;text-align:center;text-anchor:middle;stroke-width:1.05832005"
         x="134.62927"
         y="200.15001"
         font-size="4.2333px"
         text-align="center"
         id="tspan2628-8">0</tspan>
    </text>
    <text
       x="134.61136"
       y="118.76494"
       style="font-size:48px;line-height:1.25;font-family:sans-serif;letter-spacing:0px;word-spacing:0px;fill:#000000;stroke-width:1.05832005"
       id="text2630-7-4">
      <tspan
         style="font-size:16.93320084px;text-align:center;text-anchor:middle;stroke-width:1.05832005"
         x="134.61136"
         y="118.76494"
         font-size="4.2333px"
         text-align="center"
         id="tspan2628-8-0">0</tspan>
    </text>
    <text
       x="171.06842"
       y="142.40825"
       style="font-size:48px;line-height:1.25;font-family:sans-serif;letter-spacing:0px;word-spacing:0px;fill:#000000;stroke-width:1.05832005"
       id="text2630-7-4-9">
      <tspan
         style="font-size:16.93320084px;text-align:center;text-anchor:middle;stroke-width:1.05832005"
         x="171.06842"
         y="142.40825"
         font-size="4.2333px"
         text-align="center"
         id="tspan2628-8-0-1">0</tspan>
    </text>
    <text
       x="98.203461"
       y="142.40825"
       style="font-size:48px;line-height:1.25;font-family:sans-serif;letter-spacing:0px;word-spacing:0px;fill:#000000;stroke-width:1.05832005"
       id="text2630-7-4-9-9">
      <tspan
         style="font-size:16.93320084px;text-align:center;text-anchor:middle;stroke-width:1.05832005"
         x="98.203461"
         y="142.40825"
         font-size="4.2333px"
         text-align="center"
         id="tspan2628-8-0-1-4">0</tspan>
    </text>
  </g>
</svg>
