<?xml version="1.0" encoding="UTF-8" standalone="no"?>
<svg
   xmlns:dc="http://purl.org/dc/elements/1.1/"
   xmlns:cc="http://creativecommons.org/ns#"
   xmlns:rdf="http://www.w3.org/1999/02/22-rdf-syntax-ns#"
   xmlns:svg="http://www.w3.org/2000/svg"
   xmlns="http://www.w3.org/2000/svg"
   xmlns:sodipodi="http://sodipodi.sourceforge.net/DTD/sodipodi-0.dtd"
   xmlns:inkscape="http://www.inkscape.org/namespaces/inkscape"
   version="1.1"
   id="venn-svg"
   sodipodi:docname="venn3.svg"
   inkscape:version="0.92.3 (2405546, 2018-03-11)"
   width="265.83051"
   height="111.98324"
   viewBox="0 0 265.8305 111.98324">
  <metadata
     id="metadata834">
    <rdf:RDF>
      <cc:Work
         rdf:about="">
        <dc:format>image/svg+xml</dc:format>
        <dc:type
           rdf:resource="http://purl.org/dc/dcmitype/StillImage" />
        <dc:title></dc:title>
      </cc:Work>
    </rdf:RDF>
  </metadata>
  <defs
     id="defs832" />
  <sodipodi:namedview
     pagecolor="#ffffff"
     bordercolor="#666666"
     borderopacity="1"
     objecttolerance="10"
     gridtolerance="10"
     guidetolerance="10"
     inkscape:pageopacity="0"
     inkscape:pageshadow="2"
     inkscape:window-width="1920"
     inkscape:window-height="1017"
     id="namedview830"
     showgrid="false"
     inkscape:zoom="1.668772"
     inkscape:cx="25.807045"
     inkscape:cy="22.927131"
     inkscape:window-x="-8"
     inkscape:window-y="-8"
     inkscape:window-maximized="1"
     inkscape:current-layer="venn-svg"
     fit-margin-top="0"
     fit-margin-left="0"
     fit-margin-right="0"
     fit-margin-bottom="0"
     scale-x="1"
     inkscape:snap-object-midpoints="true"
     inkscape:snap-smooth-nodes="true"
     inkscape:snap-intersection-paths="true"
     inkscape:object-paths="true" />
  <path
     style="opacity:1;fill:#87de87;fill-opacity:0.87843138;stroke:#ffffff;stroke-width:1.35000002;stroke-miterlimit:4;stroke-dasharray:none;stroke-opacity:1"
     d="m 134.6992,-40.677731 a 73.506355,73.506355 0 0 0 -34.62109,62.33008 73.506355,73.506355 0 0 0 0.0879,2.4707 73.506355,73.506355 0 0 1 34.58008,-8.70508 73.506355,73.506355 0 0 1 34.54492,8.66211 73.506355,73.506355 0 0 0 0.12109,-2.42773 73.506355,73.506355 0 0 0 -34.71289,-62.33008 z"
     id="path2559"
     inkscape:connector-curvature="0" />
  <path
     style="opacity:1;fill:#aa87de;fill-opacity:0.87843138;stroke:#ffffff;stroke-width:1.35000002;stroke-miterlimit:4;stroke-dasharray:none;stroke-opacity:1"
     d="m 169.291,24.080079 a 73.506355,73.506355 0 0 1 -34.5,59.90234 73.506355,73.506355 0 0 0 38.79297,11.17579 73.506355,73.506355 0 0 0 34.58008,-8.70704 73.506355,73.506355 0 0 0 -38.87305,-62.37109 z"
     id="path2557"
     inkscape:connector-curvature="0" />
  <path
     style="opacity:1;fill:#ff9955;fill-opacity:0.87843138;stroke:#ffffff;stroke-width:1.35000002;stroke-miterlimit:4;stroke-dasharray:none;stroke-opacity:1"
     d="m 134.791,83.982419 a 73.506355,73.506355 0 0 1 -34.625,-59.85937 73.506355,73.506355 0 0 0 -38.80664,62.37109 73.506355,73.506355 0 0 0 0,0.002 73.506355,73.506355 0 0 0 0.002,0 73.506355,73.506355 0 0 0 34.54493,8.66211 73.506355,73.506355 0 0 0 38.88476,-11.17579 z"
     id="path2553"
     inkscape:connector-curvature="0" />
  <path
     style="opacity:1;fill:#ffdd55;fill-opacity:0.87843138;stroke:#ffffff;stroke-width:1.35000002;stroke-miterlimit:4;stroke-dasharray:none;stroke-opacity:1"
     d="M 95.90625,-51.853516 A 73.506355,73.506355 0 0 0 22.400391,21.652344 73.506355,73.506355 0 0 0 61.361328,86.496094 73.506355,73.506355 0 0 1 100.16602,24.125 a 73.506355,73.506355 0 0 1 -0.0879,-2.472656 73.506355,73.506355 0 0 1 34.62305,-62.330078 73.506355,73.506355 0 0 0 -38.79492,-11.175782 z"
     id="path2448" />
  <path
     style="opacity:1;fill:#80b3ff;fill-opacity:0.87843138;stroke:#ffffff;stroke-width:1.35000002;stroke-miterlimit:4;stroke-dasharray:none;stroke-opacity:1"
     d="m 134.70117,-40.677734 a 73.506355,73.506355 0 0 1 34.71094,62.330078 73.506355,73.506355 0 0 1 -0.12109,2.427734 73.506355,73.506355 0 0 1 38.87304,62.373047 73.506355,73.506355 0 0 0 38.92774,-64.800781 73.506355,73.506355 0 0 0 -73.50782,-73.50586 73.506355,73.506355 0 0 0 -38.88281,11.175782 z"
     id="path2446" />
  <path
     style="opacity:1;fill:#ff5555;fill-opacity:0.87843138;stroke:#ffffff;stroke-width:1.35000002;stroke-miterlimit:4;stroke-dasharray:none;stroke-opacity:1"
     d="m 208.16406,86.453125 a 73.506355,73.506355 0 0 1 -34.58008,8.705078 73.506355,73.506355 0 0 1 -38.79296,-11.175781 73.506355,73.506355 0 0 1 -38.88477,11.175781 73.506355,73.506355 0 0 1 -34.544922,-8.662109 73.506355,73.506355 0 0 0 -0.121094,2.427734 73.506355,73.506355 0 0 0 73.505856,73.505862 73.506355,73.506355 0 0 0 73.50586,-73.505862 73.506355,73.506355 0 0 0 -0.0879,-2.470703 z"
     id="path2444" />
  <path
     style="opacity:1;fill:#87decd;fill-opacity:0.87843138;stroke:#ffffff;stroke-width:1.35000002;stroke-miterlimit:4;stroke-dasharray:none;stroke-opacity:1"
     d="m 134.79102,83.982422 a 73.506355,73.506355 0 0 0 34.5,-59.902344 73.506355,73.506355 0 0 0 -34.54493,-8.662109 73.506355,73.506355 0 0 0 -34.58007,8.707031 73.506355,73.506355 0 0 0 34.625,59.857422 z"
     id="path2352" />
  <g
     style="font-size:10.58300018px;font-family:sans-serif;letter-spacing:0px;word-spacing:0px;fill:#000000;stroke-width:0.26458001"
     font-size="10.583px"
     letter-spacing="0px"
     word-spacing="0px"
     id="g2640"
     transform="matrix(4,0,0,4,-231.31346,-139.84156)">
    <text
       x="19.130795"
       y="16.756538"
       style="line-height:1.25"
       id="text2622">
      <tspan
         style="font-size:4.23330021px;text-align:center;text-anchor:middle;stroke-width:0.26458001"
         x="19.130795"
         y="16.756538"
         font-size="4.2333px"
         text-align="center"
         id="tspan2620">0</tspan>
    </text>
    <text
       x="34.008442"
       y="16.756538"
       style="line-height:1.25"
       id="text2626">
      <tspan
         style="font-size:4.23330021px;text-align:center;text-anchor:middle;stroke-width:0.26458001"
         x="34.008442"
         y="16.756538"
         font-size="4.2333px"
         text-align="center"
         id="tspan2624">0</tspan>
    </text>
    <text
       x="48.885826"
       y="16.756538"
       style="line-height:1.25"
       id="text2630">
      <tspan
         style="font-size:4.23330021px;text-align:center;text-anchor:middle;stroke-width:0.26458001"
         x="48.885826"
         y="16.756538"
         font-size="4.2333px"
         text-align="center"
         id="tspan2628">0</tspan>
    </text>
    <text
       x="4.6216135"
       y="3.0707977"
       style="line-height:1.25"
       id="text2634">
      <tspan
         style="font-size:2.82220006px;text-align:center;text-anchor:middle;stroke-width:0.26458001"
         x="4.6216135"
         y="3.0707977"
         font-size="2.8222px"
         text-align="center"
         id="tspan2632">Name</tspan>
    </text>
    <text
       x="63.257492"
       y="3.0707977"
       style="line-height:1.25"
       id="text2638">
      <tspan
         style="font-size:2.82220006px;text-align:center;text-anchor:middle;stroke-width:0.26458001"
         x="63.257492"
         y="3.0707977"
         font-size="2.8222px"
         text-align="center"
         id="tspan2636">Name</tspan>
    </text>
  </g>
</svg>
